<?xml version="1.0" encoding="UTF-8" standalone="no"?>
<svg
   width="256"
   height="256"
   fill="none"
   viewBox="0 0 256 256"
   id="azure"
   version="1.1"
   sodipodi:docname="jaeger-auto.svg"
   inkscape:version="1.4.2 (f4327f4, 2025-05-13)"
   xmlns:inkscape="http://www.inkscape.org/namespaces/inkscape"
   xmlns:sodipodi="http://sodipodi.sourceforge.net/DTD/sodipodi-0.dtd"
   xmlns="http://www.w3.org/2000/svg"
   xmlns:svg="http://www.w3.org/2000/svg">
  <sodipodi:namedview
     id="namedview12"
     pagecolor="#ffffff"
     bordercolor="#000000"
     borderopacity="0.25"
     inkscape:showpageshadow="2"
     inkscape:pageopacity="0.0"
     inkscape:pagecheckerboard="0"
     inkscape:deskcolor="#d1d1d1"
     inkscape:zoom="3.1835938"
     inkscape:cx="125.64417"
     inkscape:cy="129.88466"
     inkscape:window-width="1920"
     inkscape:window-height="1017"
     inkscape:window-x="-8"
     inkscape:window-y="-8"
     inkscape:window-maximized="1"
     inkscape:current-layer="g17" />
  <style
     id="style1">
#azure {
    rect {fill: #242938}

    @media (prefers-color-scheme: light) {
        rect {fill: #F4F2ED}
    }
}
</style>
  <rect
     width="256"
     height="256"
     fill="#242938"
     rx="60"
     id="rect1" />
  <g
     id="g17"
     transform="matrix(1.5627302,0,0,1.5627302,25.889978,27.022565)">
    <g
       id="g20"
       transform="translate(3.216017,-2.8140149)">
      <rect
         style="fill:#ffffff;fill-opacity:1;stroke:none;stroke-width:0.616229;stroke-dasharray:none;stroke-opacity:1"
         id="rect19"
         width="14.874077"
         height="7.2360363"
         x="41.662148"
         y="91.065125"
         ry="3.6180182"
         transform="rotate(-6.9629484)" />
      <circle
         style="fill:#ffffff;fill-opacity:1;stroke:#000000;stroke-width:0.616229;stroke-dasharray:none;stroke-opacity:1"
         id="path18"
         cx="38.205643"
         cy="67.430054"
         r="11.758562" />
      <circle
         style="fill:#ffffff;fill-opacity:1;stroke:#000000;stroke-width:0.616229;stroke-dasharray:none;stroke-opacity:1"
         id="path19"
         cx="71.471321"
         cy="60.294518"
         r="11.457061" />
      <path
         fill="#231f20"
         d="m 38.422,113.68 c -1.805,0.414 -7.117,3.289 -11.711,4.16 -4.59,0.875 -8.563,1.336 -9.957,1.851 -1.39,0.512 -2.473,1.54 0.258,2.567 2.738,1.027 15.992,1.387 17.18,0 1.187,-1.387 -0.82,-1.988 -3.715,-1.95 -2.063,0.024 -1.813,-0.69 -1.805,-0.773 0,0 0.129,-0.898 3.3,-1.336 3.169,-0.433 17.18,-1.742 16.923,-3.234 -0.258,-1.488 -8.668,-1.695 -10.473,-1.285 z m -6.406,10.41 c -0.094,-0.426 -1.375,-0.52 -2.856,-0.195 -1.484,0.324 -2.61,0.93 -2.515,1.359 0.093,0.43 1.37,0.52 2.855,0.2 1.484,-0.325 2.605,-0.934 2.516,-1.364 z m -6.164,-0.004 c -0.036,-0.422 -1.352,-0.668 -2.942,-0.543 -1.59,0.129 -2.851,0.574 -2.82,1 0.035,0.422 1.351,0.664 2.941,0.535 1.594,-0.121 2.856,-0.566 2.82,-0.992 z m -6.043,-0.664 c -0.047,-0.328 -0.942,-0.48 -2,-0.336 -1.063,0.14 -1.883,0.527 -1.836,0.86 0.043,0.327 0.941,0.48 2,0.335 1.058,-0.144 1.879,-0.527 1.836,-0.86 z m -3.82,-0.586 c -0.04,-0.262 -0.9,-0.36 -1.923,-0.211 -1.023,0.145 -1.816,0.48 -1.78,0.746 0.038,0.27 0.902,0.367 1.921,0.219 1.02,-0.149 1.82,-0.485 1.777,-0.754 z m -0.852,-1.05 c -0.04,-0.27 -0.899,-0.364 -1.922,-0.216 -1.024,0.149 -1.82,0.485 -1.781,0.75 0.039,0.266 0.902,0.364 1.921,0.215 1.024,-0.144 1.82,-0.484 1.782,-0.75 z m -0.465,-1.157 c -0.035,-0.23 -0.781,-0.317 -1.672,-0.188 -0.887,0.133 -1.578,0.422 -1.543,0.657 0.031,0.23 0.777,0.312 1.668,0.183 0.89,-0.125 1.582,-0.418 1.547,-0.652 z m 51.297,-5.512 c -3.145,0.156 -10.266,-0.203 -11.246,1.442 -0.98,1.64 2.89,2.257 8.976,1.746 6.09,-0.516 14.703,-1.184 15.067,-3.032 0.359,-1.847 -1.602,-1.492 -1.809,-2.668 -0.207,-1.183 2.168,-1.183 2.633,-2.93 0.465,-1.745 -3.195,-1.542 -6.45,-1.542 -3.25,0 -8.663,0.308 -9.183,2.004 -0.516,1.695 2.477,1.695 4.594,2.105 2.113,0.414 1.496,1.184 1.496,1.184 -0.106,1.078 -0.93,1.539 -4.078,1.691 z m -5.684,4.512 c 0,-0.492 -1.222,-0.887 -2.73,-0.887 -1.508,0 -2.727,0.395 -2.727,0.887 0,0.484 1.219,0.883 2.727,0.883 1.508,0 2.73,-0.399 2.73,-0.883 z m 6.113,-0.195 c 0,-0.45 -0.816,-0.809 -1.82,-0.809 -1.004,0 -1.82,0.36 -1.82,0.809 0,0.445 0.816,0.808 1.82,0.808 1.004,0 1.82,-0.363 1.82,-0.808 z m 5.84,-0.579 c 0,-0.363 -0.894,-0.656 -1.992,-0.656 -1.101,0 -1.996,0.293 -1.996,0.656 0,0.364 0.895,0.657 1.996,0.657 1.098,0 1.992,-0.293 1.992,-0.657 z m 3.832,-0.73 c 0,-0.383 -0.648,-0.695 -1.453,-0.695 -0.8,0 -1.453,0.312 -1.453,0.695 0,0.383 0.652,0.691 1.453,0.691 0.805,0 1.453,-0.308 1.453,-0.691 z m 3.793,-0.79 c 0,-0.374 -0.66,-0.675 -1.472,-0.675 -0.813,0 -1.47,0.3 -1.47,0.676 0,0.371 0.657,0.672 1.47,0.672 0.812,0 1.472,-0.301 1.472,-0.672 z M 14.238,98.392 c 0,0.879 1.922,1.707 5.328,2.445 -0.242,-1.762 -0.093,-3.531 0.133,-4.91 -3.492,0.742 -5.46,1.582 -5.46,2.469 z m 100.559,-2.266 a 7.604,7.604 0 0 1 -1.953,2.98 c -1.54,1.454 -2.887,2.325 -4.094,2.641 6.66,-0.933 10.613,-2.094 10.613,-3.351 0,-0.81 -1.636,-1.579 -4.566,-2.27 z m 0,0"
         id="path1"
         style="fill:#ffffff;fill-opacity:1;stroke:#000000;stroke-width:0.616229;stroke-dasharray:none;stroke-opacity:1" />
      <path
         fill="#67cfe3"
         d="m 103.406,94.281 c -0.422,-3.09 -1.746,-4.476 -2.918,-5.699 -1.086,-1.14 -2.117,-2.215 -1.785,-4.191 0.309,-1.829 1.766,-2.95 4.152,-3.243 -1.449,-9.75 -3.574,-22.046 -6.3,-32.535 -1.364,-5.238 -3.516,-8.875 -6.407,-11.297 -3.308,1.688 -7.28,3.54 -11.722,5.457 a 306.52,306.52 0 0 1 -9.676,3.973 c -2.531,2.707 -5.305,5.379 -7.004,6.14 -1.207,0.54 -2.285,0.759 -3.219,0.759 -2.02,0 -3.386,-1.012 -4.043,-1.91 -0.77,0.203 -1.382,0.335 -1.797,0.374 -0.496,0.055 -1.23,0.118 -2.148,0.184 a 2.8,2.8 0 0 1 -0.46,2.805 c -0.747,0.89 -1.946,1.34 -3.645,1.34 -2.442,0 -5.918,-0.926 -10.57,-2.801 -0.63,-0.254 -1.259,-0.5 -1.891,-0.739 -0.356,0.004 -0.711,0.004 -1.067,0.004 h -0.004 c -4.445,0 -7.914,-0.136 -10.636,-0.359 -2.985,6.145 -1.688,12.96 -0.598,18.59 1.047,5.398 4.676,14.996 8.043,23.246 1.137,2.789 2.3,5.57 3.488,8.34 9.11,0.8 20.793,1.281 33.531,1.281 15.16,0 28.81,-0.684 38.426,-1.777 -0.703,-2.868 -1.586,-6.86 -1.742,-7.88 z M 28.32,68.011 c 0,-5.8 4.727,-10.5 10.555,-10.5 5.824,0 10.547,4.7 10.547,10.5 0,2.891 -1.176,5.509 -3.074,7.41 a 10.682,10.682 0 0 1 -2.137,1.65 10.499,10.499 0 0 1 -5.336,1.44 c -5.828,0 -10.555,-4.698 -10.555,-10.5 z M 56.5,90.247 c -2.223,0.66 -3.023,-1.883 -3.262,-2.988 0.016,-0.008 0.032,-0.02 0.047,-0.031 1.035,-0.645 2.238,-1.383 3.59,-1.899 0.156,0.422 0.402,1.14 0.55,1.899 0.247,1.28 0.223,2.68 -0.925,3.02 z m 3.613,-0.898 c -0.554,-0.207 -0.972,-1.121 -1.27,-2.121 a 18.719,18.719 0 0 1 -0.515,-2.344 c 0.258,-0.059 0.527,-0.106 0.797,-0.145 0.133,-0.02 0.418,-0.039 1.016,-0.039 0.547,0 1.207,0.02 1.91,0.04 0.199,0.003 0.406,0.011 0.617,0.011 0.059,0.477 0.121,1.172 0.2,2.184 0.01,0.105 0.01,0.199 0.01,0.293 0.032,2.53 -2.187,2.34 -2.765,2.12 z m 9.496,-6.387 c -1.078,0.477 -2.656,0.68 -5.293,0.68 -0.894,0 -1.816,-0.02 -2.629,-0.04 a 63.082,63.082 0 0 0 -1.925,-0.038 c -0.508,0 -0.88,0.015 -1.102,0.042 -2.488,0.329 -4.543,1.61 -6.195,2.641 -0.48,0.3 -0.938,0.582 -1.36,0.817 -0.687,0.374 -1.523,0.574 -2.43,0.574 -1.671,0 -3.241,-0.653 -4.206,-1.746 -0.797,-0.907 -1.133,-2.043 -0.969,-3.282 0.5,-3.714 5.836,-5.613 6.441,-5.816 l 0.977,-0.332 a 1.496,1.496 0 0 1 -0.074,-0.29 c -0.29,-1.73 1.98,-3.546 5.07,-4.058 l 0.414,-0.058 c 2.559,-0.317 4.805,0.398 5.504,1.691 l 1.191,0.008 c 2.711,0.023 4.954,0.387 6.653,1.082 1.715,0.695 2.761,1.707 2.953,2.848 0.387,2.293 -0.746,4.265 -3.02,5.277 z m 1.954,-12.016 c -5.825,0 -10.547,-4.703 -10.547,-10.504 0,-5.8 4.722,-10.504 10.547,-10.504 5.824,0 10.55,4.704 10.55,10.504 0,5.801 -4.722,10.504 -10.55,10.504 z m 0,0"
         id="path2" />
      <path
         fill="#000000"
         d="m 85.074,25.055 -0.082,-0.137 -0.101,-0.133 c -0.098,-0.156 -0.485,-0.394 -0.516,-0.398 l -0.04,-0.02 -0.019,-0.012 -0.074,-0.035 h -0.008 l -0.015,-0.008 -0.106,-0.035 -0.215,-0.074 c -0.144,-0.05 -0.304,-0.07 -0.457,-0.101 -0.156,-0.028 -0.32,-0.028 -0.48,-0.036 a 4.047,4.047 0 0 0 -0.488,0.04 3.526,3.526 0 0 0 -1.657,0.796 5.275,5.275 0 0 0 -1.043,1.22 8.6,8.6 0 0 0 -1.03,2.417 9.917,9.917 0 0 0 -0.313,1.79 c -0.024,0.218 -0.024,0.39 -0.028,0.507 -0.004,0.117 0,0.18 0,0.18 l 0.332,-0.598 c 0.211,-0.375 0.504,-0.906 0.864,-1.523 0.367,-0.61 0.804,-1.31 1.332,-1.942 0.265,-0.316 0.558,-0.61 0.867,-0.836 0.308,-0.219 0.625,-0.375 0.941,-0.422 0.078,-0.011 0.16,-0.023 0.239,-0.03 0.082,0.01 0.16,0 0.242,0.019 0.086,0.02 0.168,0.015 0.254,0.043 l 0.203,0.054 0.062,0.032 -0.008,-0.008 h 0.012 c 0,0.004 0.004,0.008 0.008,0.011 l 0.004,0.004 0.023,0.008 h -0.011 c -0.004,0 -0.008,0 -0.012,-0.004 0.012,0.008 0.02,0.02 0.027,0.043 0.043,0.074 0.078,0.23 0.09,0.399 0.016,0.382 -0.016,0.761 -0.09,1.136 -0.058,0.375 -0.136,0.739 -0.226,1.106 -0.16,0.695 -0.32,1.285 -0.422,1.703 -0.11,0.418 -0.168,0.66 -0.168,0.66 0,0 0.183,-0.176 0.457,-0.516 0.375,-0.476 0.715,-0.98 1.008,-1.507 a 8.36,8.36 0 0 0 0.523,-1.121 c 0.16,-0.418 0.309,-0.88 0.356,-1.438 a 2.503,2.503 0 0 0 -0.118,-0.96 1.407,1.407 0 0 0 -0.117,-0.274 z m 0,0"
         id="path3" />
      <path
         fill="#000000"
         d="m 83.75,25.816 -0.012,-0.003 0.012,0.011 h 0.004 L 83.75,25.82 Z m 0,0"
         id="path4" />
      <path
         fill="#231f20"
         d="m 19.648,45.129 h 0.145 c -0.05,-0.086 -0.098,-0.176 -0.145,-0.262 z m 1.29,-4.074 c 0.25,0.496 0.546,0.968 0.89,1.406 0.121,0.16 0.227,0.273 0.3,0.355 0.067,0.082 0.11,0.121 0.11,0.121 0,0 -0.043,-0.226 -0.12,-0.609 -0.071,-0.387 -0.192,-0.926 -0.294,-1.558 a 11.31,11.31 0 0 1 -0.12,-1 c -0.017,-0.336 -0.017,-0.7 0.054,-0.961 a 0.731,0.731 0 0 1 0.137,-0.29 0.342,0.342 0 0 1 0.148,-0.081 l 0.047,-0.012 0.082,-0.016 c 0.023,-0.004 -0.008,0.016 -0.012,0.016 -0.004,0.004 -0.015,0.004 -0.023,0.004 h -0.016 l 0.008,0.004 c 0.02,0.007 0.031,0.007 0.047,0.011 0.078,0.028 0.195,0.094 0.32,0.184 0.262,0.187 0.531,0.48 0.79,0.773 0.257,0.309 0.503,0.621 0.737,0.942 0.473,0.64 0.91,1.261 1.293,1.797 0.313,0.437 0.63,0.875 0.957,1.3 0.122,0.164 0.254,0.329 0.387,0.489 L 26.64,43.766 C 26.625,43.664 26.605,43.504 26.566,43.309 A 11.835,11.835 0 0 0 26.152,41.723 13.412,13.412 0 0 0 25.238,39.582 8.953,8.953 0 0 0 24.516,38.437 5.303,5.303 0 0 0 23.461,37.34 2.918,2.918 0 0 0 22.617,36.91 C 22.523,36.89 22.434,36.871 22.34,36.86 l -0.074,-0.012 h -0.094 c -0.067,0 -0.125,0.004 -0.192,0.007 -0.054,0.008 -0.144,0.016 -0.171,0.024 l -0.079,0.02 -0.078,0.023 -0.105,0.031 -0.031,0.012 -0.059,0.027 a 1.773,1.773 0 0 0 -0.824,0.707 2.082,2.082 0 0 0 -0.29,0.895 c -0.05,0.55 0.06,0.996 0.169,1.398 0.113,0.367 0.254,0.723 0.425,1.063 z m 0,0"
         id="path5" />
      <path
         fill="#dfcaa3"
         d="m 25.805,105.574 c 2.472,0 4.21,-1.34 5.437,-3.078 A 362.39,362.39 0 0 1 25.359,88.102 c -0.593,0.5 -1.273,1.253 -2.015,2.39 -1.836,2.84 -3.352,9.438 -1.446,12.926 0.797,1.45 2.075,2.156 3.907,2.156 z m 87.308,-16.355 c -1.453,-3.73 -4.535,-6.383 -7.5,-6.446 l -0.101,-0.011 c -0.008,0 -0.578,-0.082 -1.344,-0.082 -1.613,0 -3.594,0.34 -3.867,1.976 -0.192,1.133 0.304,1.711 1.36,2.817 1.202,1.261 2.85,2.984 3.347,6.593 0.566,4.125 1.578,6.223 3.012,6.223 0.668,0 1.882,-0.398 3.898,-2.3 2.48,-2.34 2.242,-6.063 1.195,-8.77 z m 0,0"
         id="path6-2" />
      <path
         fill="#231f20"
         d="m 41.246,71.703 a 3.32,3.32 0 0 1 -3.324,3.313 3.32,3.32 0 0 1 -3.328,-3.313 3.32,3.32 0 0 1 3.328,-3.312 3.297,3.297 0 0 1 2.348,0.968 c 0.625,0.621 0.976,1.465 0.976,2.344 z m 32.215,-7.762 a 3.314,3.314 0 0 1 -3.324,3.313 3.318,3.318 0 0 1 -3.328,-3.313 c 0,-1.828 1.492,-3.308 3.328,-3.308 a 3.316,3.316 0 0 1 3.324,3.308 z m 0,0"
         id="path7-4" />
      <path
         fill="#648c1a"
         d="m 28.895,34.707 c 2.597,0.695 5.53,1.047 8.726,1.047 5.129,0 16.02,-0.988 31.328,-7.633 l 0.344,-0.152 a 9.049,9.049 0 0 1 0.21,-2.512 c 0.337,-1.535 1.013,-2.84 1.837,-3.703 -0.156,-0.59 -0.29,-1.02 -0.383,-1.238 -1.766,-0.938 -16.324,-6.336 -23.922,-6.336 -0.762,0 -1.422,0.054 -1.969,0.164 -6.73,1.37 -16.96,13.023 -17.324,14.672 -0.11,0.714 -0.078,2.957 0.004,5.382 z m -0.13,16.543 a 5.41,5.41 0 0 0 -0.66,-0.11 2.822,2.822 0 0 1 -2.945,-2.304 2.67,2.67 0 0 1 -0.043,-0.43 30.14,30.14 0 0 0 -2.242,1.39 l -1.27,0.876 -0.937,-1.227 a 32.58,32.58 0 0 1 -2.785,-4.418 c -2.25,1.059 -4.012,2.215 -4.442,3.313 -0.082,0.207 -0.046,0.32 0.036,0.441 0.367,0.535 2.55,2.172 15.289,2.469 z m 26.454,-3.59 a 2.84,2.84 0 0 1 3.468,0.332 c 0.141,-0.023 0.383,-0.082 0.735,-0.242 1.398,-0.66 6.426,-6.008 10.25,-10.586 0.137,-0.16 0.285,-0.305 0.457,-0.434 -8.734,3.758 -20.938,7.864 -32.559,7.864 -1.867,0 -3.64,-0.106 -5.289,-0.32 l 0.258,0.746 -1.453,0.554 a 33.91,33.91 0 0 0 -0.68,0.274 c 1.871,0.433 4.403,1.289 7.578,2.57 5.809,2.332 8.032,2.422 8.586,2.39 a 2.85,2.85 0 0 1 2.563,-0.035 88.955,88.955 0 0 0 3.383,-0.261 c 0.32,-0.035 0.797,-0.133 1.398,-0.29 A 2.802,2.802 0 0 1 55.219,47.66 Z M 89.05,30.473 c -0.422,2.511 -1.239,5.27 -1.774,6.02 l -0.507,0.702 a 118.116,118.116 0 0 0 6.07,-3.133 c 6.035,-3.367 6.789,-4.84 6.875,-5.214 0.055,-0.246 -0.004,-0.32 -0.031,-0.352 -0.067,-0.082 -0.493,-0.492 -2.399,-0.492 -2.082,0 -4.996,0.476 -8.039,1.133 -0.055,0.449 -0.121,0.894 -0.195,1.336 z m -2.352,6.757 -0.87,-0.066 a 48.844,48.844 0 0 0 -3.782,-0.133 c -2.25,0 -5.219,0.137 -7.652,0.711 0.48,0.992 0.335,2.172 -0.372,3.02 a 159.513,159.513 0 0 1 -2.812,3.277 c 2.2,-0.89 4.39,-1.805 6.566,-2.746 a 218.13,218.13 0 0 0 8.918,-4.063 z m 0,0"
         id="path8" />
      <path
         fill="#dfcaa3"
         d="m 69.594,29.594 c -6.117,2.656 -19.52,7.773 -31.973,7.773 -3.156,0 -6.246,-0.328 -9.144,-1.11 0.316,0.477 0.617,0.966 0.898,1.462 1.078,1.883 1.863,3.746 2.293,4.843 1.508,0.235 3.473,0.422 5.902,0.422 7.153,0 18.336,-1.629 33.68,-8.504 0.293,-0.925 0.613,-1.84 0.957,-2.746 -0.031,0 -0.062,0.008 -0.094,0.008 -0.16,0 -0.324,-0.02 -0.48,-0.055 -0.953,-0.207 -1.66,-0.98 -2.04,-2.093 z m 0,0"
         id="path9" />
      <path
         fill="#67cfe3"
         d="m 19.793,45.129 a 32.127,32.127 0 0 0 2.164,3.344 c 3.703,-2.555 8.55,-4.399 8.55,-4.399 0,0 -0.124,-0.363 -0.359,-0.96 -0.14,-0.36 -0.289,-0.72 -0.441,-1.075 a 32.483,32.483 0 0 0 -1.39,-2.898 23.597,23.597 0 0 0 -1.243,-2.07 c -1.484,-2.223 -3.37,-4.114 -5.484,-4.114 -0.664,0 -1.356,0.188 -2.059,0.613 -3.879,2.336 -1.875,7.684 0.117,11.297 0.047,0.09 0.098,0.176 0.145,0.262 z m 0.55,-6.535 c 0.028,-0.278 0.102,-0.586 0.29,-0.895 0.191,-0.316 0.48,-0.562 0.824,-0.707 l 0.059,-0.027 0.027,-0.012 0.11,-0.031 0.077,-0.024 0.079,-0.02 c 0.027,-0.007 0.117,-0.015 0.171,-0.023 0.067,-0.003 0.125,-0.007 0.192,-0.007 h 0.094 l 0.074,0.011 c 0.09,0.012 0.187,0.032 0.277,0.051 0.344,0.106 0.61,0.266 0.844,0.43 0.45,0.344 0.77,0.715 1.055,1.097 0.285,0.376 0.515,0.766 0.722,1.145 0.367,0.688 0.672,1.402 0.914,2.14 0.176,0.52 0.313,1.051 0.414,1.59 0.04,0.192 0.059,0.352 0.075,0.454 l 0.02,0.164 c 0,0 -0.15,-0.176 -0.388,-0.489 a 40.282,40.282 0 0 1 -0.957,-1.3 c -0.382,-0.536 -0.82,-1.157 -1.293,-1.797 -0.234,-0.32 -0.48,-0.633 -0.738,-0.942 -0.258,-0.293 -0.527,-0.586 -0.789,-0.77 a 1.324,1.324 0 0 0 -0.32,-0.187 c -0.02,-0.004 -0.028,-0.004 -0.043,-0.011 L 22.125,38.43 h 0.008 c 0.012,0 0.023,0 0.027,-0.004 0.004,0 0.035,-0.02 0.012,-0.016 l -0.082,0.02 -0.047,0.008 a 0.325,0.325 0 0 0 -0.148,0.082 0.731,0.731 0 0 0 -0.137,0.289 c -0.07,0.261 -0.07,0.625 -0.055,0.96 0.024,0.344 0.07,0.684 0.121,0.997 0.102,0.632 0.223,1.175 0.293,1.562 0.078,0.383 0.121,0.61 0.121,0.61 0,0 -0.043,-0.04 -0.11,-0.122 -0.073,-0.082 -0.179,-0.195 -0.3,-0.355 a 8.375,8.375 0 0 1 -0.89,-1.406 6.402,6.402 0 0 1 -0.422,-1.063 C 20.402,39.59 20.293,39.145 20.344,38.594 Z m 1.247,-6.442 v 0.805 z m 0,0"
         id="path10" />
      <path
         fill="#dfcaa3"
         d="m 73.574,20.637 c 0.164,0 0.324,0.02 0.485,0.05 1.187,0.266 1.988,1.399 2.257,2.977 2.258,-3.16 4.73,-4.762 7.364,-4.762 1.11,0 2.086,0.262 2.902,0.766 0.773,-0.934 1.535,-1.883 2.277,-2.844 -1.046,0.188 -3.23,0.473 -3.23,0.473 8.266,-3.027 7.601,-11.262 7.601,-11.262 0,1.422 -4.277,4.828 -4.277,4.828 0.192,-1.23 -0.473,-2.84 -0.473,-2.84 0.188,1.61 -4.94,5.774 -4.94,5.774 0.378,-0.758 0.089,-2.082 0.089,-2.082 -0.285,1.512 -2.563,2.082 -2.563,2.082 C 82.488,12.094 85.152,3.105 83.156,2.535 81.16,1.969 78.402,8.398 78.402,8.398 78.309,6.887 77.453,6.887 77.453,6.887 c 0.383,4.73 -3.418,8.515 -3.418,8.515 -0.285,-0.945 -1.808,-1.422 -1.808,-1.422 0.492,1.055 -0.067,5.852 -0.239,7.207 0.504,-0.351 1.043,-0.55 1.586,-0.55 z m 0,0"
         id="path11" />
      <path
         fill="#000000"
         d="m 71.547,29.844 v 0.004 c 0.043,0.047 0.086,0.086 0.129,0.12 0.015,0.012 0.031,0.02 0.047,0.032 0.03,0.02 0.062,0.043 0.097,0.059 a 0.641,0.641 0 0 0 0.16,0.058 0.864,0.864 0 0 0 0.266,0.004 c 0.246,-0.039 0.52,-0.191 0.797,-0.445 a 42.51,42.51 0 0 1 0.805,-1.774 c 0.257,-0.527 0.523,-1.05 0.808,-1.566 0.406,-2.14 -0.144,-3.898 -0.945,-4.074 A 0.525,0.525 0 0 0 73.574,22.25 c -0.824,0 -2.023,1.426 -2.492,3.555 -0.34,1.543 -0.184,2.914 0.219,3.68 l 0.004,0.003 c 0.07,0.14 0.148,0.262 0.238,0.356 z m 0,0"
         id="path12" />
      <path
         fill="#67cfe3"
         d="M 83.742,25.805 H 83.73 l 0.008,0.008 0.012,0.003 c -0.004,-0.003 -0.004,-0.007 -0.008,-0.011 z m 0.035,0.023 -0.023,-0.008 -0.004,-0.004 v 0.004 l 0.004,0.004 c 0.004,0.004 0.008,0.004 0.012,0.004 z m 0,0"
         id="path13" />
      <path
         fill="#67cfe3"
         d="m 83.68,20.512 c -4.707,0 -8.168,7.054 -9.98,11.847 a 56.69,56.69 0 0 0 -0.884,2.524 c -0.14,0.437 -0.273,0.879 -0.402,1.32 0.227,0.043 0.45,0.125 0.66,0.227 2.742,-0.817 6.297,-1.004 8.973,-1.004 2.27,0 3.91,0.133 3.91,0.133 0.715,-0.996 4.852,-15.047 -2.277,-15.047 z m 1.629,5.777 a 5.063,5.063 0 0 1 -0.356,1.438 8.36,8.36 0 0 1 -0.523,1.12 11.785,11.785 0 0 1 -1.008,1.508 c -0.274,0.34 -0.457,0.516 -0.457,0.516 0,0 0.058,-0.242 0.168,-0.66 0.101,-0.418 0.262,-1.008 0.422,-1.703 0.082,-0.344 0.168,-0.719 0.226,-1.106 0.074,-0.375 0.106,-0.754 0.09,-1.136 -0.012,-0.168 -0.047,-0.325 -0.09,-0.399 -0.008,-0.023 -0.015,-0.035 -0.027,-0.043 H 83.75 a 64.74,64.74 0 0 0 -0.012,-0.012 l -0.062,-0.03 -0.203,-0.055 c -0.086,-0.028 -0.168,-0.024 -0.254,-0.043 -0.082,-0.02 -0.16,-0.008 -0.242,-0.02 a 5.58,5.58 0 0 1 -0.239,0.027 c -0.316,0.051 -0.633,0.207 -0.941,0.426 a 5.32,5.32 0 0 0 -0.867,0.836 c -0.528,0.633 -0.965,1.332 -1.328,1.942 -0.364,0.617 -0.657,1.148 -0.868,1.523 l -0.332,0.598 c 0,0 -0.004,-0.063 0,-0.18 0.004,-0.117 0.004,-0.29 0.028,-0.508 0.05,-0.605 0.152,-1.203 0.312,-1.789 0.195,-0.73 0.5,-1.574 1.031,-2.422 a 5.437,5.437 0 0 1 1.043,-1.215 3.526,3.526 0 0 1 1.657,-0.797 c 0.16,-0.023 0.324,-0.035 0.484,-0.039 0.164,0.008 0.328,0.008 0.484,0.036 0.153,0.03 0.313,0.05 0.457,0.101 l 0.215,0.074 0.106,0.035 0.015,0.008 h 0.008 l 0.074,0.035 0.02,0.012 0.039,0.02 c 0.031,0.004 0.418,0.242 0.516,0.398 l 0.101,0.133 0.082,0.137 a 1.2,1.2 0 0 1 0.117,0.273 c 0.121,0.36 0.133,0.676 0.118,0.961 z m 0,0"
         id="path14" />
      <path
         fill="#000000"
         d="m 58.527,51.941 c 0.774,0 1.618,-0.207 2.516,-0.605 1.879,-0.844 6.453,-5.418 11.664,-11.66 0.277,-0.332 0.336,-0.793 0.152,-1.188 a 1.114,1.114 0 0 0 -1.011,-0.636 1.117,1.117 0 0 0 -0.864,0.398 c -2.261,2.719 -8.632,10 -10.824,11.035 l -0.031,0.02 a 4.78,4.78 0 0 1 -1.176,0.367 l -0.836,0.133 -0.61,-0.582 a 1.15,1.15 0 0 0 -0.773,-0.301 c -0.214,0 -0.422,0.062 -0.597,0.176 a 1.11,1.11 0 0 0 -0.344,1.535 c 0.086,0.133 0.89,1.308 2.734,1.308 z m -10.629,0.246 c -0.18,0 -0.363,0.043 -0.523,0.126 l -0.332,0.171 -0.367,0.028 c -0.09,0.004 -0.18,0.004 -0.27,0.004 -1.043,0 -3.61,-0.325 -9.066,-2.52 -6.016,-2.418 -8.403,-2.781 -9.285,-2.781 a 1.66,1.66 0 0 0 -0.313,0.02 1.104,1.104 0 0 0 -0.902,1.293 1.13,1.13 0 0 0 1.094,0.917 c 0.023,0 0.046,0 0.07,-0.004 l 0.125,-0.007 0.121,0.011 c 0.664,0.055 2.793,0.422 8.254,2.614 4.414,1.777 7.754,2.675 9.93,2.675 1.144,0 1.925,-0.246 2.324,-0.722 a 1.114,1.114 0 0 0 -0.145,-1.57 1.083,1.083 0 0 0 -0.715,-0.255 z m 0,0"
         id="path15" />
      <path
         fill="#dfcaa3"
         d="m 63.008,75.36 c 0,0 -0.313,3.671 -5.508,4.437 -0.984,0.14 -1.828,0.207 -2.555,0.207 -2.761,0 -3.851,-0.906 -4.492,-1.695 0,0 -4.976,1.671 -5.355,4.515 -0.285,2.121 1.77,3.211 3.578,3.211 0.61,0 1.191,-0.125 1.648,-0.375 1.809,-0.992 4.512,-3.168 8.125,-3.644 0.328,-0.04 0.778,-0.055 1.313,-0.055 1.234,0 2.922,0.082 4.554,0.082 1.856,0 3.645,-0.106 4.637,-0.547 2.23,-0.992 2.23,-2.695 2.09,-3.547 -0.16,-0.941 -2.43,-2.543 -8.035,-2.59 z m 0,0"
         id="path16" />
      <path
         fill="#231f20"
         d="m 56.957,78.383 0.184,-0.031 0.203,-0.043 c 2.703,-0.551 4.691,-2.106 4.71,-3.66 a 1.86,1.86 0 0 0 -0.222,-0.903 c -0.7,-1.293 -2.945,-2.008 -5.504,-1.691 l -0.414,0.058 c -3.09,0.512 -5.363,2.328 -5.074,4.059 0.02,0.101 0.043,0.2 0.078,0.293 0.531,1.55 3.129,2.402 6.039,1.918 z m 0,0"
         id="path17" />
    </g>
  </g>
  <defs
     id="defs12">
    <linearGradient
       id="paint0_linear_159_730"
       x1="116.244"
       x2="54.783"
       y1="47.967"
       y2="229.54"
       gradientUnits="userSpaceOnUse">
      <stop
         stop-color="#114A8B"
         id="stop4" />
      <stop
         offset="1"
         stop-color="#0669BC"
         id="stop5" />
    </linearGradient>
    <linearGradient
       id="paint1_linear_159_730"
       x1="135.444"
       x2="121.227"
       y1="132.585"
       y2="137.392"
       gradientUnits="userSpaceOnUse">
      <stop
         stop-opacity=".3"
         id="stop6" />
      <stop
         offset=".071"
         stop-opacity=".2"
         id="stop7" />
      <stop
         offset=".321"
         stop-opacity=".1"
         id="stop8" />
      <stop
         offset=".623"
         stop-opacity=".05"
         id="stop9" />
      <stop
         offset="1"
         stop-opacity="0"
         id="stop10" />
    </linearGradient>
    <linearGradient
       id="paint2_linear_159_730"
       x1="127.625"
       x2="195.091"
       y1="42.671"
       y2="222.414"
       gradientUnits="userSpaceOnUse">
      <stop
         stop-color="#3CCBF4"
         id="stop11" />
      <stop
         offset="1"
         stop-color="#2892DF"
         id="stop12" />
    </linearGradient>
    <linearGradient
       id="confluence-original-b"
       gradientUnits="userSpaceOnUse"
       x1="5.2090001"
       y1="2.523"
       x2="20.208"
       y2="11.136"
       gradientTransform="matrix(8.2700614,0,0,8.2700614,-1.9908652,-0.42188173)">
      <stop
         offset="0"
         stop-color="#0052cc"
         id="stop4-0" />
      <stop
         offset=".918"
         stop-color="#2380fb"
         id="stop5-9" />
      <stop
         offset="1"
         stop-color="#2684ff"
         id="stop6-4" />
    </linearGradient>
    <linearGradient
       id="confluence-original-a"
       gradientUnits="userSpaceOnUse"
       x1="26.791"
       y1="28.466999"
       x2="11.792"
       y2="19.855"
       gradientTransform="matrix(8.2700614,0,0,8.2700614,-1.9908652,-0.42188173)">
      <stop
         offset="0"
         stop-color="#0052cc"
         id="stop1" />
      <stop
         offset=".918"
         stop-color="#2380fb"
         id="stop2" />
      <stop
         offset="1"
         stop-color="#2684ff"
         id="stop3" />
    </linearGradient>
  </defs>
</svg>
