<?xml version="1.0" encoding="UTF-8" standalone="no"?>
<svg
   width="256"
   height="256"
   fill="none"
   viewBox="0 0 256 256"
   id="azure"
   version="1.1"
   sodipodi:docname="opentelemetry-auto.svg"
   inkscape:version="1.4.2 (f4327f4, 2025-05-13)"
   xmlns:inkscape="http://www.inkscape.org/namespaces/inkscape"
   xmlns:sodipodi="http://sodipodi.sourceforge.net/DTD/sodipodi-0.dtd"
   xmlns="http://www.w3.org/2000/svg"
   xmlns:svg="http://www.w3.org/2000/svg">
  <sodipodi:namedview
     id="namedview12"
     pagecolor="#ffffff"
     bordercolor="#000000"
     borderopacity="0.25"
     inkscape:showpageshadow="2"
     inkscape:pageopacity="0.0"
     inkscape:pagecheckerboard="0"
     inkscape:deskcolor="#d1d1d1"
     inkscape:zoom="3.1835938"
     inkscape:cx="127.84294"
     inkscape:cy="128"
     inkscape:window-width="1920"
     inkscape:window-height="1017"
     inkscape:window-x="-8"
     inkscape:window-y="-8"
     inkscape:window-maximized="1"
     inkscape:current-layer="azure" />
  <style
     id="style1">
#azure {
    rect {fill: #242938}

    @media (prefers-color-scheme: light) {
        rect {fill: #F4F2ED}
    }
}
</style>
  <rect
     width="256"
     height="256"
     fill="#242938"
     rx="60"
     id="rect1" />
  <defs
     id="defs12">
    <linearGradient
       id="paint0_linear_159_730"
       x1="116.244"
       x2="54.783"
       y1="47.967"
       y2="229.54"
       gradientUnits="userSpaceOnUse">
      <stop
         stop-color="#114A8B"
         id="stop4" />
      <stop
         offset="1"
         stop-color="#0669BC"
         id="stop5" />
    </linearGradient>
    <linearGradient
       id="paint1_linear_159_730"
       x1="135.444"
       x2="121.227"
       y1="132.585"
       y2="137.392"
       gradientUnits="userSpaceOnUse">
      <stop
         stop-opacity=".3"
         id="stop6" />
      <stop
         offset=".071"
         stop-opacity=".2"
         id="stop7" />
      <stop
         offset=".321"
         stop-opacity=".1"
         id="stop8" />
      <stop
         offset=".623"
         stop-opacity=".05"
         id="stop9" />
      <stop
         offset="1"
         stop-opacity="0"
         id="stop10" />
    </linearGradient>
    <linearGradient
       id="paint2_linear_159_730"
       x1="127.625"
       x2="195.091"
       y1="42.671"
       y2="222.414"
       gradientUnits="userSpaceOnUse">
      <stop
         stop-color="#3CCBF4"
         id="stop11" />
      <stop
         offset="1"
         stop-color="#2892DF"
         id="stop12" />
    </linearGradient>
  </defs>
  <g
     id="g2"
     transform="matrix(1.5966534,0,0,1.5966534,24.854197,24.237503)">
    <path
       fill="#f5a800"
       d="m 67.648,69.797 c -5.246,5.25 -5.246,13.758 0,19.008 5.25,5.246 13.758,5.246 19.004,0 5.25,-5.25 5.25,-13.758 0,-19.008 -5.246,-5.246 -13.754,-5.246 -19.004,0 z m 14.207,14.219 a 6.649,6.649 0 0 1 -9.41,0 6.65,6.65 0 0 1 0,-9.407 6.649,6.649 0 0 1 9.41,0 c 2.598,2.586 2.598,6.809 0,9.407 z M 86.43,3.672 78.195,11.906 a 4.17,4.17 0 0 0 0,5.875 l 32.149,32.149 a 4.17,4.17 0 0 0 5.875,0 l 8.234,-8.235 c 1.61,-1.61 1.61,-4.261 0,-5.87 L 92.29,3.671 a 4.159,4.159 0 0 0 -5.86,0 z M 28.738,108.895 a 3.763,3.763 0 0 0 0,-5.31 l -4.183,-4.187 a 3.768,3.768 0 0 0 -5.313,0 l -8.644,8.649 -0.016,0.012 -2.371,-2.375 c -1.313,-1.313 -3.45,-1.313 -4.75,0 -1.313,1.312 -1.313,3.449 0,4.75 l 14.246,14.242 a 3.353,3.353 0 0 0 4.746,0 c 1.3,-1.313 1.313,-3.45 0,-4.746 l -2.375,-2.375 0.016,-0.012 z m 0,0"
       id="path1-5" />
    <path
       fill="#425cc7"
       d="M 72.297,27.313 54.004,45.605 c -1.625,1.625 -1.625,4.301 0,5.926 L 65.3,62.824 c 7.984,-5.746 19.18,-5.035 26.363,2.153 l 9.148,-9.149 c 1.622,-1.625 1.622,-4.297 0,-5.922 L 78.22,27.313 a 4.185,4.185 0 0 0 -5.922,0 z M 60.55,67.585 53.878,60.913 c -1.563,-1.562 -4.125,-1.562 -5.684,0 l -23.53,23.54 a 4.036,4.036 0 0 0 0,5.687 l 13.331,13.332 a 4.036,4.036 0 0 0 5.688,0 L 58.815,88.315 C 55.616,81.706 56.19,73.722 60.55,67.585 Z m 0,0"
       id="path2-5" />
  </g>
</svg>
