<?xml version="1.0" encoding="UTF-8" standalone="no"?>
<svg
   width="256"
   height="256"
   fill="none"
   viewBox="0 0 256 256"
   id="azure"
   version="1.1"
   sodipodi:docname="rancher-auto.svg"
   inkscape:version="1.4.2 (f4327f4, 2025-05-13)"
   xmlns:inkscape="http://www.inkscape.org/namespaces/inkscape"
   xmlns:sodipodi="http://sodipodi.sourceforge.net/DTD/sodipodi-0.dtd"
   xmlns="http://www.w3.org/2000/svg"
   xmlns:svg="http://www.w3.org/2000/svg">
  <sodipodi:namedview
     id="namedview12"
     pagecolor="#ffffff"
     bordercolor="#000000"
     borderopacity="0.25"
     inkscape:showpageshadow="2"
     inkscape:pageopacity="0.0"
     inkscape:pagecheckerboard="0"
     inkscape:deskcolor="#d1d1d1"
     inkscape:zoom="3.1835938"
     inkscape:cx="127.84294"
     inkscape:cy="128"
     inkscape:window-width="1920"
     inkscape:window-height="1017"
     inkscape:window-x="-8"
     inkscape:window-y="-8"
     inkscape:window-maximized="1"
     inkscape:current-layer="azure" />
  <style
     id="style1">
#azure {
    rect {fill: #242938}

    @media (prefers-color-scheme: light) {
        rect {fill: #F4F2ED}
    }
}
</style>
  <rect
     width="256"
     height="256"
     fill="#242938"
     rx="60"
     id="rect1" />
  <defs
     id="defs12">
    <linearGradient
       id="paint0_linear_159_730"
       x1="116.244"
       x2="54.783"
       y1="47.967"
       y2="229.54"
       gradientUnits="userSpaceOnUse">
      <stop
         stop-color="#114A8B"
         id="stop4" />
      <stop
         offset="1"
         stop-color="#0669BC"
         id="stop5" />
    </linearGradient>
    <linearGradient
       id="paint1_linear_159_730"
       x1="135.444"
       x2="121.227"
       y1="132.585"
       y2="137.392"
       gradientUnits="userSpaceOnUse">
      <stop
         stop-opacity=".3"
         id="stop6" />
      <stop
         offset=".071"
         stop-opacity=".2"
         id="stop7" />
      <stop
         offset=".321"
         stop-opacity=".1"
         id="stop8" />
      <stop
         offset=".623"
         stop-opacity=".05"
         id="stop9" />
      <stop
         offset="1"
         stop-opacity="0"
         id="stop10" />
    </linearGradient>
    <linearGradient
       id="paint2_linear_159_730"
       x1="127.625"
       x2="195.091"
       y1="42.671"
       y2="222.414"
       gradientUnits="userSpaceOnUse">
      <stop
         stop-color="#3CCBF4"
         id="stop11" />
      <stop
         offset="1"
         stop-color="#2892DF"
         id="stop12" />
    </linearGradient>
  </defs>
  <g
     id="g2"
     transform="matrix(1.7118798,0,0,2.0154012,21.408946,1.5736834)"
     style="fill:#0078d4;fill-opacity:1">
    <path
       d="m 127,47.4 -1.4,-8.2 c -0.4,-2.6 -1.5,-4.8 -2.3,-4.8 -0.8,0 -1.5,2.2 -1.5,4.9 v 2.2 c 0,2.6 -2.2,4.9 -4.9,4.9 h -2.2 c -0.2,0 -0.3,0 -0.4,0 v 5.9 c 0.2,0 0.3,0 0.4,0 h 8.1 c 2.8,-0.2 4.6,-2.3 4.2,-4.9"
       id="path1-9"
       style="fill:#0078d4;fill-opacity:1" />
    <path
       d="m 107.6,40.4 h -13 c -0.1,0 -0.2,0 -0.3,0 H 80.8 c -0.2,0 -0.3,0 -0.4,0.1 v -1.3 c 0,-2.6 -0.7,-4.9 -1.5,-4.9 -0.8,0 -1.8,2.2 -2.3,4.8 l -1.4,8.2 c -0.4,2.6 1.4,4.8 4.1,4.8 h 8.1 c 0.8,0 1.6,-0.1 2.3,-0.3 -0.3,1.4 -1.4,2.4 -2.9,2.4 H 75.4 c -1.8,0 -3.2,-1.7 -2.9,-3.5 l 1.2,-6.9 C 74,42 72.6,40.3 70.8,40.3 H 14.3 c -1.2,0 -2.2,0.7 -2.7,1.8 L 1,58.4 C 0.8,58.7 0.8,59 1.1,59.3 l 2,2.4 c 0.3,0.3 0.7,0.3 1,0.1 l 7.2,-5.7 v 34.5 c 0,1.7 1.3,3 3,3 h 16 c 1.7,0 3,-1.3 3,-3 v -12 c 0,-1.7 1.3,-3 3,-3 h 39.9 c 1.7,0 3,1.3 3,3 v 12 c 0,1.7 1.3,3 3,3 h 16 c 1.7,0 3,-1.3 3,-3 V 77.7 h -8.5 c -2.6,0 -4.9,-2.2 -4.9,-4.9 v -8.3 c 0,-1.6 0.8,-3 1.9,-3.9 v 9.9 c 0,2.6 2.2,4.9 4.9,4.9 h 13.1 c 2.6,0 4.9,-2.2 4.9,-4.9 V 45.4 c -0.1,-2.8 -2.3,-5 -5,-5"
       id="path2-5"
       style="fill:#0078d4;fill-opacity:1" />
  </g>
</svg>
